# xmcd CD database file
#
# Track frame offsets:
#	150
#	32730
#	79906
#	99920
#	133544
#	174096
#
# Disc length: 2933 seconds
#
# Revision: 0
# Processed by: cddbd v1.5.2PL0 Copyright (c) Steve Scherf et al.
# Submitted via: CDex 1.51
#
DISCID=3c0b7306
DTITLE=Peter Kater - Ambrosia- Healing Series Vol. 3
DYEAR=2008
DGENRE=New Age
TTITLE0=The Yearning
TTITLE1=At Heaven's Gate
TTITLE2=Reconciliation
TTITLE3=Ambrosia
TTITLE4=Exaltation
TTITLE5=Temperance
EXTD=YEAR: 2008
EXTT0=
EXTT1=
EXTT2=
EXTT3=
EXTT4=
EXTT5=
PLAYORDER=
